<svg 
 xmlns="http://www.w3.org/2000/svg"
 xmlns:xlink="http://www.w3.org/1999/xlink"
 width="8.608cm" height="8.608cm">
<path fill-rule="evenodd"  fill="rgb(255, 255, 255)"
 d="M243.985,136.932 C243.793,134.599 242.211,132.611 239.979,131.896 L209.793,122.227 L200.111,92.085 C199.539,90.306 198.143,88.913 196.363,88.342 L166.178,78.674 L156.497,48.533 C155.926,46.754 154.530,45.361 152.748,44.791 L122.566,35.123 L112.885,4.984 C112.169,2.755 110.178,1.175 107.841,0.984 C105.503,0.790 103.282,2.026 102.212,4.109 L31.659,141.361 L15.479,157.518 C-4.302,177.271 -4.302,209.410 15.479,229.162 C25.061,238.731 37.802,244.000 51.352,244.000 C64.904,244.000 77.644,238.731 87.226,229.162 L103.406,213.006 L240.854,142.554 C242.941,141.485 244.176,139.266 243.985,136.932 ZM106.127,21.836 L111.629,38.966 L71.179,104.890 C69.507,107.615 70.364,111.178 73.093,112.847 C74.038,113.425 75.082,113.700 76.115,113.700 C78.064,113.700 79.969,112.718 81.061,110.936 L120.522,46.623 L146.372,54.902 L154.973,81.681 L134.588,102.038 C132.326,104.297 132.326,107.961 134.589,110.221 C135.720,111.351 137.203,111.916 138.686,111.916 C140.169,111.916 141.652,111.351 142.783,110.221 L163.167,89.864 L189.985,98.453 L198.277,124.269 L90.227,190.378 L76.371,176.541 L126.393,126.587 C128.656,124.328 128.656,120.663 126.393,118.404 C124.130,116.144 120.461,116.144 118.198,118.404 L68.175,168.358 L54.319,154.521 L69.008,130.580 C70.680,127.856 69.823,124.293 67.094,122.623 C64.364,120.953 60.797,121.809 59.126,124.535 L45.891,146.105 L43.483,143.701 L106.127,21.836 ZM79.031,220.979 C71.638,228.361 61.808,232.427 51.352,232.427 C40.897,232.427 31.067,228.361 23.674,220.978 C8.412,205.739 8.412,180.941 23.674,165.701 L36.399,152.994 L91.756,208.272 L79.031,220.979 ZM101.063,201.199 L98.656,198.795 L205.947,133.149 L223.103,138.645 L101.063,201.199 Z"/>
</svg>