<svg 
 xmlns="http://www.w3.org/2000/svg"
 xmlns:xlink="http://www.w3.org/1999/xlink"
 width="5.468cm" height="5.433cm">
<path fill-rule="evenodd"  fill="rgb(255, 255, 255)"
 d="M131.711,74.505 C128.611,74.505 125.698,75.709 123.499,77.900 C122.253,79.143 120.596,79.827 118.833,79.827 L109.258,79.827 C108.107,79.827 107.104,80.611 106.829,81.726 C106.823,81.751 106.497,83.033 105.615,85.058 C103.044,84.597 101.085,82.355 101.085,79.661 L101.085,75.258 C107.660,68.987 111.760,60.158 111.760,50.391 L111.760,34.425 C111.760,15.443 96.271,0.000 77.231,0.000 C58.192,0.000 42.703,15.443 42.703,34.425 L42.703,50.391 C42.703,60.158 46.803,68.987 53.378,75.258 L53.378,79.661 C53.378,82.353 51.423,84.593 48.855,85.056 C47.974,83.035 47.640,81.748 47.634,81.725 C47.359,80.610 46.356,79.827 45.205,79.827 L35.630,79.827 C33.867,79.827 32.210,79.142 30.957,77.893 C28.765,75.709 25.852,74.505 22.752,74.505 C10.207,74.505 -0.000,84.681 -0.000,97.189 L-0.000,109.733 C-0.000,113.392 1.955,116.834 5.102,118.717 L5.338,118.858 L5.338,143.522 C5.338,149.300 10.052,154.000 15.847,154.000 L51.080,154.000 C51.084,154.000 51.087,154.000 51.091,154.000 L103.371,154.000 C103.374,154.000 103.378,154.000 103.382,154.000 C103.385,154.000 103.389,154.000 103.392,154.000 L138.617,154.000 C144.411,154.000 149.126,149.300 149.126,143.522 L149.126,118.858 L149.361,118.717 C152.508,116.835 154.463,113.392 154.463,109.733 L154.463,97.189 C154.463,84.681 144.256,74.505 131.711,74.505 ZM90.772,76.543 L91.771,67.580 C96.427,66.720 100.234,65.527 103.229,64.332 C100.406,69.544 96.052,73.815 90.772,76.543 ZM48.379,56.474 C48.362,56.444 48.342,56.416 48.323,56.386 C48.030,54.980 47.838,53.536 47.755,52.064 C48.060,52.248 48.372,52.422 48.698,52.575 C51.735,53.999 55.978,55.573 61.479,56.695 L62.113,62.382 C57.240,61.362 53.486,59.968 50.784,58.703 C49.769,58.228 48.938,57.457 48.379,56.474 ZM106.140,56.386 C106.121,56.416 106.101,56.444 106.084,56.474 C105.525,57.457 104.694,58.228 103.679,58.703 C100.977,59.968 97.223,61.362 92.350,62.382 L92.984,56.695 C98.485,55.574 102.728,53.999 105.765,52.576 C106.091,52.423 106.403,52.249 106.708,52.065 C106.624,53.536 106.433,54.980 106.140,56.386 ZM79.734,79.720 L79.734,68.816 C82.187,68.748 84.492,68.580 86.652,68.337 L85.502,78.650 C83.648,79.190 81.718,79.553 79.734,79.720 ZM79.734,63.824 L79.734,58.172 C82.648,58.090 85.353,57.868 87.854,57.545 L87.220,63.243 C84.918,63.539 82.424,63.745 79.734,63.824 ZM106.756,43.108 C106.756,45.228 105.532,47.172 103.636,48.060 C98.616,50.413 89.961,53.218 77.232,53.218 C64.502,53.218 55.847,50.413 50.827,48.060 C48.931,47.171 47.707,45.228 47.707,43.108 L47.707,42.408 C47.707,39.382 50.176,36.920 53.211,36.920 L101.252,36.920 C104.287,36.920 106.756,39.382 106.756,42.408 L106.756,43.108 ZM66.609,57.545 C69.109,57.868 71.814,58.090 74.729,58.172 L74.729,63.824 C72.039,63.745 69.545,63.539 67.244,63.243 L66.609,57.545 ZM74.729,68.816 L74.729,79.720 C72.745,79.553 70.815,79.190 68.961,78.650 L67.811,68.337 C69.971,68.580 72.276,68.747 74.729,68.816 ZM77.232,84.816 C80.140,84.816 82.965,84.454 85.665,83.776 C83.661,86.255 80.597,87.810 77.232,87.810 C73.866,87.810 70.802,86.255 68.798,83.776 C71.498,84.454 74.323,84.816 77.232,84.816 ZM74.732,5.096 C74.732,5.116 74.729,5.135 74.729,5.155 L74.729,23.782 C74.729,25.159 75.850,26.276 77.232,26.276 C78.613,26.276 79.734,25.159 79.734,23.782 L79.734,5.155 C79.734,5.135 79.731,5.116 79.731,5.096 C94.533,6.339 106.262,18.516 106.739,33.477 C105.141,32.497 103.262,31.931 101.252,31.931 L53.211,31.931 C51.201,31.931 49.322,32.497 47.724,33.477 C48.201,18.516 59.929,6.339 74.732,5.096 ZM51.234,64.333 C54.229,65.528 58.036,66.720 62.692,67.580 L63.690,76.544 C58.411,73.815 54.057,69.544 51.234,64.333 ZM61.990,81.275 C63.888,88.026 70.097,92.799 77.232,92.799 C84.366,92.799 90.575,88.026 92.473,81.275 C93.720,80.661 94.924,79.974 96.081,79.220 L96.081,79.661 C96.081,81.601 96.614,83.418 97.540,84.978 C94.531,91.381 86.318,95.792 77.232,95.792 C68.152,95.792 59.931,91.379 56.922,84.979 C57.849,83.419 58.382,81.601 58.382,79.661 L58.382,79.220 C59.539,79.974 60.743,80.661 61.990,81.275 ZM53.224,88.673 C57.540,96.011 66.810,100.782 77.232,100.782 C87.661,100.782 96.924,96.013 101.239,88.673 C101.871,89.048 102.546,89.357 103.254,89.594 C102.670,90.556 102.001,91.570 101.234,92.614 C95.500,100.424 87.428,105.931 77.232,108.991 C67.120,105.957 59.094,100.512 53.365,92.800 C52.544,91.693 51.830,90.615 51.211,89.593 C51.918,89.356 52.592,89.047 53.224,88.673 ZM122.770,136.244 L122.770,149.010 L105.348,149.010 C101.872,136.561 90.366,127.723 77.232,127.723 C64.097,127.723 52.591,136.561 49.115,149.010 L31.693,149.010 L31.693,136.244 C31.693,133.404 30.752,130.670 29.101,128.437 L54.006,101.124 C58.934,105.988 66.178,111.019 76.540,113.989 C76.992,114.119 77.471,114.119 77.923,113.989 C88.285,111.019 95.530,105.988 100.457,101.124 L125.363,128.437 C123.711,130.670 122.770,133.404 122.770,136.244 ZM100.116,149.010 L54.347,149.010 C57.647,139.407 66.824,132.712 77.232,132.712 C87.639,132.712 96.816,139.407 100.116,149.010 ZM5.004,109.733 L5.004,97.189 C5.004,87.433 12.966,79.494 22.752,79.494 C24.515,79.494 26.172,80.179 27.425,81.428 C29.616,83.613 32.530,84.816 35.630,84.816 L43.374,84.816 C44.184,87.077 45.919,91.105 49.191,95.561 C49.631,96.161 50.110,96.780 50.626,97.413 L25.419,125.058 C25.377,125.032 25.338,125.003 25.295,124.978 L7.677,114.439 C6.028,113.453 5.004,111.649 5.004,109.733 ZM10.342,143.522 L10.342,121.851 L22.721,129.256 C25.168,130.720 26.689,133.398 26.689,136.244 L26.689,149.010 L15.847,149.010 C12.811,149.010 10.342,146.548 10.342,143.522 ZM144.121,143.522 C144.121,146.548 141.652,149.010 138.616,149.010 L127.774,149.010 L127.774,136.244 C127.774,133.398 129.295,130.721 131.742,129.256 L144.121,121.851 L144.121,143.522 ZM149.459,109.733 C149.459,111.649 148.435,113.453 146.786,114.439 L129.167,124.978 C129.125,125.003 129.085,125.032 129.043,125.058 L103.836,97.413 C104.353,96.780 104.832,96.161 105.272,95.561 C108.544,91.105 110.279,87.077 111.089,84.816 L118.833,84.816 C121.932,84.816 124.846,83.613 127.044,81.421 C128.290,80.179 129.947,79.494 131.710,79.494 C141.496,79.494 149.458,87.433 149.458,97.189 L149.458,109.733 L149.459,109.733 Z"/>
</svg>