<svg 
 xmlns="http://www.w3.org/2000/svg"
 xmlns:xlink="http://www.w3.org/1999/xlink"
 width="3.845cm" height="3.634cm">
<path fill-rule="evenodd"  fill="rgb(255, 255, 255)"
 d="M29.452,5.289 C29.216,5.048 28.964,4.837 28.723,4.611 C27.781,3.753 27.187,3.276 27.187,3.276 L27.193,3.340 C24.368,1.263 20.784,0.001 17.017,0.001 C6.711,0.000 0.000,7.637 0.000,17.167 L0.000,41.200 C0.000,50.729 6.817,58.367 17.017,58.367 C21.224,58.367 21.474,56.153 23.823,54.933 C23.823,54.933 27.226,52.892 27.226,58.367 L27.226,103.000 L37.436,103.000 L37.436,82.400 C41.196,82.400 44.243,79.326 44.243,75.534 L44.243,37.767 C44.243,22.178 34.384,9.947 29.452,5.289 ZM66.839,62.685 C68.091,66.104 68.066,68.667 68.066,68.667 L68.066,75.533 C68.066,79.326 71.114,82.400 74.873,82.400 L74.873,103.000 L85.083,103.000 L85.083,82.400 C88.842,82.400 91.889,79.326 91.889,75.534 L91.889,68.667 C91.889,68.667 91.893,66.088 93.131,62.680 C89.056,64.310 84.627,65.234 79.977,65.234 C75.333,65.234 70.909,64.311 66.839,62.685 ZM79.976,0.000 C64.007,0.000 51.065,13.066 51.065,29.180 C51.065,45.295 64.007,58.361 79.976,58.361 C95.944,58.361 108.886,45.295 108.886,29.180 C108.886,13.066 95.944,0.000 79.976,0.000 Z"/>
</svg>