<?xml version="1.0" encoding="utf-8"?>
<!-- Generator: Adobe Illustrator 17.1.0, SVG Export Plug-In . SVG Version: 6.00 Build 0)  -->
<!DOCTYPE svg PUBLIC "-//W3C//DTD SVG 1.1//EN" "http://www.w3.org/Graphics/SVG/1.1/DTD/svg11.dtd">
<svg version="1.1" xmlns="http://www.w3.org/2000/svg" xmlns:xlink="http://www.w3.org/1999/xlink" x="0px" y="0px"
	 viewBox="0 0 400.8 244.7" enable-background="new 0 0 400.8 244.7" xml:space="preserve">
<g id="Layer_7">
	<path fill="none" stroke="#FFFFFF" stroke-width="9" stroke-linecap="round" stroke-linejoin="round" stroke-miterlimit="10" d="
		M157.8,132.7l-0.1-23.9 M158.7,171.5c-1-3.6-0.8-5.9-0.8-9.9l0-3.2 M231.9,62.5v99c0,22.2-16.6,40.3-37,40.3
		c-9.9,0-19-4.3-25.6-11.3"/>
	<path fill="none" stroke="#FFFFFF" stroke-width="9" stroke-linecap="round" stroke-linejoin="round" stroke-miterlimit="10" d="
		M67.1,62.5v99c0,22.2-16.6,40.3-37,40.3c-9.9,0-19-4.3-25.6-11.3"/>
	<path fill="none" stroke="#FFFFFF" stroke-width="9" stroke-linecap="round" stroke-linejoin="round" stroke-miterlimit="10" d="
		M292.2,214.5v-99"/>
	<path fill="none" stroke="#FFFFFF" stroke-width="9" stroke-linecap="round" stroke-linejoin="round" stroke-miterlimit="10" d="
		M231.9,146.4c0-13.6,10-24.8,22.2-24.8c12.2,0,22.2,11.1,22.2,24.8v32"/>
	<path fill="none" stroke="#FFFFFF" stroke-width="9" stroke-linecap="round" stroke-linejoin="round" stroke-miterlimit="10" d="
		M351.9,146.4c0-13.6,10-24.8,22.2-24.8c12.2,0,22.2,11.1,22.2,24.8v32"/>
	<path fill="none" stroke="#FFFFFF" stroke-width="9" stroke-linecap="round" stroke-linejoin="round" stroke-miterlimit="10" d="
		M292.2,215.2c0,13.6-10,24.8-22.2,24.8c-12.2,0-22.2-11.1-22.2-24.8v-32"/>
	<path fill="none" stroke="#FFFFFF" stroke-width="9" stroke-linecap="round" stroke-linejoin="round" stroke-miterlimit="10" d="
		M351.5,69.1v105.9c0,13.6-10,24.8-22.2,24.8h-10.5"/>
	<path fill="none" stroke="#FFFFFF" stroke-width="9" stroke-linecap="round" stroke-linejoin="round" stroke-miterlimit="10" d="
		M276.2,29.3V96c0,13.6-10,24.8-22.2,24.8c-12.2,0-22.2-11.1-22.2-24.8"/>
	<path fill="none" stroke="#FFFFFF" stroke-width="9" stroke-linecap="round" stroke-linejoin="round" stroke-miterlimit="10" d="
		M276.2,96V29.3c0-13.6,10-24.8,22.2-24.8c12.2,0,22.2,11.1,22.2,24.8"/>
	<path fill="none" stroke="#FFFFFF" stroke-width="9" stroke-linecap="round" stroke-linejoin="round" stroke-miterlimit="10" d="
		M395.9,29.3V96c0,13.6-10,24.8-22.2,24.8c-12.2,0-22.2-11.1-22.2-24.8"/>
	
		<line fill="none" stroke="#FFFFFF" stroke-width="9" stroke-linecap="round" stroke-linejoin="round" stroke-miterlimit="10" x1="395.9" y1="96" x2="395.9" y2="29.3"/>
	<path fill="none" stroke="#FFFFFF" stroke-width="9" stroke-linecap="round" stroke-linejoin="round" stroke-miterlimit="10" d="
		M360.2,38c0,12.1-11.2,22-25,22"/>
	<path fill="none" stroke="#FFFFFF" stroke-width="9" stroke-linecap="round" stroke-linejoin="round" stroke-miterlimit="10" d="
		M351.6,29.3c0-13.6,10-24.8,22.2-24.8c12.2,0,22.2,11.1,22.2,24.8"/>
	
		<line fill="none" stroke="#FFFFFF" stroke-width="9" stroke-linecap="round" stroke-linejoin="round" stroke-miterlimit="10" x1="111.7" y1="88.1" x2="111.7" y2="154.8"/>
	
		<line fill="none" stroke="#FFFFFF" stroke-width="9" stroke-linecap="round" stroke-linejoin="round" stroke-miterlimit="10" x1="111.7" y1="154.8" x2="111.7" y2="88.1"/>
	<path fill="none" stroke="#FFFFFF" stroke-width="9" stroke-linecap="round" stroke-linejoin="round" stroke-miterlimit="10" d="
		M67.4,87.4c0-13.6,10-24.8,22.2-24.8c12.2,0,22.2,11.1,22.2,24.8"/>
	
		<line fill="none" stroke="#FFFFFF" stroke-width="9" stroke-linecap="round" stroke-linejoin="round" stroke-miterlimit="10" x1="351.6" y1="96" x2="351.6" y2="68.1"/>
</g>
<g id="Layer_9">
	<path fill="none" stroke="#FFFFFF" stroke-width="9" stroke-linecap="round" stroke-linejoin="round" stroke-miterlimit="10" d="
		M217.2,174.3V149c0,0-25.5-28.6-54.2-5.2"/>
	<path fill="none" stroke="#FFFFFF" stroke-width="9" stroke-linecap="round" stroke-linejoin="round" stroke-miterlimit="10" d="
		M173.2,164.4"/>
	<path fill="none" stroke="#FFFFFF" stroke-width="9" stroke-linecap="round" stroke-linejoin="round" stroke-miterlimit="10" d="
		M217.2,127.2V84.4c0-12-9.9-21.8-22-21.8c-12.1,0-22,9.8-22,21.8"/>
	<path fill="none" stroke="#FFFFFF" stroke-width="9" stroke-linecap="round" stroke-linejoin="round" stroke-miterlimit="10" d="
		M155.9,84.7L155.9,84.7c0-12-9.9-21.8-22-21.8c-12.1,0-22,9.8-22,21.8"/>
	<path fill="none" stroke="#FFFFFF" stroke-width="9" stroke-linecap="round" stroke-linejoin="round" stroke-miterlimit="10" d="
		M173.2,139.7v24.6c0,12-9.9,21.8-22,21.8c-12.1,0-22-9.8-22-21.8"/>
	
		<line fill="none" stroke="#FFFFFF" stroke-width="9" stroke-linecap="round" stroke-linejoin="round" stroke-miterlimit="10" x1="173.2" y1="111.4" x2="173.2" y2="125.3"/>
	
		<line fill="none" stroke="#FFFFFF" stroke-width="9" stroke-linecap="round" stroke-linejoin="round" stroke-miterlimit="10" x1="173.2" y1="84.4" x2="173.2" y2="97.1"/>
	<path fill="none" stroke="#FFFFFF" stroke-width="9" stroke-linecap="round" stroke-linejoin="round" stroke-miterlimit="10" d="
		M163.3,143.6c-4.3,3.3-9.7,5.3-15.6,5.3c-14.1,0-25.5-11.3-25.5-25.3c0-10,5.8-18.6,14.3-22.7"/>
	<path fill="none" stroke="#FFFFFF" stroke-width="9" stroke-linecap="round" stroke-linejoin="round" stroke-miterlimit="10" d="
		M136.6,100.9c0,0,33.8-20.9,80.7,27"/>
	<path fill="none" stroke="#FFFFFF" stroke-width="9" stroke-linecap="round" stroke-linejoin="round" stroke-miterlimit="10" d="
		M292.2,216.4v-13.2c0-13.6,9.8-24.8,21.8-24.8h21.2"/>
	<path fill="none" stroke="#FFFFFF" stroke-width="9" stroke-linecap="round" stroke-linejoin="round" stroke-miterlimit="10" d="
		M292.2,158.9v-13.2c0-13.6,9.8-24.8,21.8-24.8h21.2"/>
	<path fill="none" stroke="#FFFFFF" stroke-width="9" stroke-linecap="round" stroke-linejoin="round" stroke-miterlimit="10" d="
		M292.2,98V84.8C292.2,71.1,302,60,314,60h21.2"/>
</g>
</svg>
