<svg 
 xmlns="http://www.w3.org/2000/svg"
 xmlns:xlink="http://www.w3.org/1999/xlink"
 width="6.597cm" height="3.845cm">
<path fill-rule="evenodd"  fill="rgb(255, 255, 255)"
 d="M166.713,50.942 C160.934,55.843 154.150,60.719 146.601,65.438 C141.447,90.726 119.094,109.004 93.164,109.004 C82.415,109.004 72.052,105.885 63.131,99.992 C54.450,101.991 46.197,103.338 38.639,103.957 C35.460,104.217 32.460,104.347 29.650,104.347 C14.045,104.347 4.218,100.360 1.020,92.642 C-4.116,80.252 10.349,61.928 39.726,43.570 C44.805,18.737 66.835,-0.004 93.164,-0.004 C103.937,-0.004 114.315,3.126 123.245,9.041 C123.386,8.986 123.531,8.937 123.682,8.902 C139.124,5.382 152.845,4.016 163.366,4.950 C171.519,5.675 181.945,8.242 185.308,16.358 C189.083,25.465 182.653,37.424 166.713,50.942 ZM93.164,102.970 C114.242,102.970 132.665,89.392 139.175,69.886 C129.127,75.659 117.989,81.116 106.216,85.990 C94.448,90.861 82.719,94.870 71.534,97.888 C78.215,101.222 85.580,102.970 93.164,102.970 ZM120.585,14.514 C112.497,8.964 103.015,6.030 93.164,6.030 C66.420,6.030 44.662,27.774 44.662,54.500 C44.662,60.663 45.805,66.660 48.053,72.333 C49.001,72.518 52.689,72.817 63.390,69.963 C72.394,67.562 83.621,63.645 95.002,58.934 C106.383,54.223 117.093,49.059 125.158,44.395 C134.724,38.863 137.131,36.044 137.677,35.236 C134.046,26.862 128.160,19.713 120.585,14.514 ZM179.730,18.666 C176.217,10.191 156.263,8.350 129.463,13.826 C131.128,15.309 132.699,16.884 134.163,18.550 C147.710,16.134 163.960,15.235 167.483,23.736 C169.372,28.292 166.981,33.947 160.377,40.544 C159.787,41.133 159.015,41.427 158.242,41.427 C157.469,41.427 156.697,41.133 156.107,40.544 C154.929,39.365 154.929,37.455 156.108,36.277 C161.342,31.048 162.534,27.563 161.905,26.045 C161.288,24.556 158.446,23.441 154.301,23.063 C150.164,22.686 144.708,23.000 138.352,23.972 C140.482,27.119 142.293,30.493 143.738,34.061 C144.052,34.838 144.019,35.670 143.712,36.384 C142.973,39.554 138.817,43.225 130.455,48.274 C121.915,53.430 110.145,59.195 97.312,64.508 C84.478,69.820 72.076,74.061 62.390,76.449 C56.886,77.806 52.709,78.491 49.634,78.491 C45.992,78.492 43.896,77.529 42.957,75.586 C42.815,75.391 42.688,75.182 42.594,74.948 C41.266,71.671 40.269,68.296 39.605,64.849 C34.409,68.664 30.318,72.308 27.662,75.506 C25.019,78.688 23.808,81.472 24.422,82.955 C24.896,84.097 26.647,85.022 29.353,85.561 C30.989,85.886 32.050,87.475 31.724,89.109 C31.438,90.544 30.177,91.537 28.767,91.537 C28.571,91.537 28.373,91.518 28.173,91.478 C23.289,90.506 20.150,88.415 18.845,85.264 C15.317,76.755 27.479,65.894 38.741,58.048 C38.665,56.871 38.624,55.689 38.624,54.500 C38.624,53.455 38.657,52.417 38.715,51.386 C12.571,68.593 3.639,83.194 6.598,90.333 C9.157,96.505 20.950,99.351 38.146,97.943 C56.966,96.404 80.320,90.178 103.905,80.416 C127.491,70.652 148.409,58.551 162.807,46.341 C175.962,35.184 182.288,24.839 179.730,18.666 ZM143.331,53.813 C142.823,54.142 142.252,54.301 141.688,54.301 C140.701,54.301 139.733,53.817 139.155,52.927 C138.246,51.530 138.642,49.662 140.041,48.754 C142.190,47.358 144.240,45.954 146.133,44.583 C147.482,43.605 149.371,43.905 150.349,45.255 C151.328,46.604 151.026,48.490 149.677,49.468 C147.700,50.900 145.566,52.361 143.331,53.813 ZM101.743,75.198 C79.470,84.418 57.659,90.485 41.903,91.844 C41.815,91.851 41.727,91.855 41.640,91.855 C40.090,91.855 38.772,90.669 38.636,89.097 C38.492,87.437 39.723,85.975 41.384,85.832 C56.550,84.525 77.707,78.617 99.433,69.624 C109.278,65.549 118.597,61.110 127.131,56.432 C128.593,55.630 130.428,56.165 131.230,57.625 C132.031,59.086 131.497,60.920 130.035,61.721 C121.309,66.505 111.791,71.039 101.743,75.198 ZM124.145,31.224 C123.571,31.730 122.859,31.979 122.149,31.979 C121.313,31.979 120.481,31.634 119.884,30.958 C114.485,24.842 107.105,20.735 99.104,19.394 C97.460,19.118 96.350,17.562 96.626,15.919 C96.902,14.276 98.459,13.168 100.103,13.443 C109.465,15.013 118.098,19.816 124.412,26.966 C125.515,28.215 125.395,30.121 124.145,31.224 ZM87.223,19.394 C85.210,19.731 83.213,20.247 81.289,20.927 C80.956,21.044 80.616,21.100 80.283,21.100 C79.039,21.100 77.875,20.326 77.436,19.087 C76.881,17.516 77.705,15.793 79.276,15.238 C81.530,14.442 83.867,13.838 86.224,13.443 C87.866,13.167 89.425,14.276 89.701,15.919 C89.977,17.562 88.867,19.118 87.223,19.394 Z"/>
</svg>