<svg 
 xmlns="http://www.w3.org/2000/svg"
 xmlns:xlink="http://www.w3.org/1999/xlink"
 width="4.163cm" height="4.127cm">
<path fill-rule="evenodd"  fill="rgb(255, 255, 255)"
 d="M99.927,99.866 C88.871,110.915 74.171,117.000 58.536,117.000 C42.900,117.000 28.201,110.915 17.145,99.866 C6.089,88.817 -0.000,74.126 -0.000,58.500 C-0.000,42.874 6.089,28.183 17.145,17.134 C28.201,6.085 42.900,-0.000 58.536,-0.000 C74.171,-0.000 88.871,6.085 99.927,17.134 C110.983,28.183 117.072,42.874 117.072,58.500 C117.072,74.126 110.983,88.817 99.927,99.866 ZM52.501,103.732 C52.501,107.057 55.209,109.763 58.536,109.763 C61.863,109.763 64.571,107.057 64.571,103.732 L64.571,73.050 L52.501,73.050 L52.501,103.732 ZM58.536,7.237 C41.926,7.237 27.138,15.170 17.758,27.441 L99.314,27.441 C89.934,15.170 75.146,7.237 58.536,7.237 ZM62.157,34.678 L62.157,54.881 L65.415,54.881 L65.415,62.119 L51.657,62.119 L51.657,54.881 L54.915,54.881 L54.915,34.678 L13.128,34.678 C9.372,41.800 7.242,49.905 7.242,58.500 C7.242,82.462 23.778,102.633 46.044,108.222 C45.537,106.819 45.260,105.307 45.260,103.732 L45.260,92.349 L38.421,92.349 C31.100,92.349 25.144,86.396 25.144,79.080 C25.144,71.764 31.100,65.812 38.421,65.812 L78.651,65.812 C85.972,65.812 91.928,71.764 91.928,79.080 C91.928,86.396 85.972,92.349 78.651,92.349 L71.812,92.349 L71.812,103.732 C71.812,105.308 71.535,106.819 71.028,108.222 C93.294,102.633 109.830,82.462 109.830,58.500 C109.830,49.905 107.700,41.800 103.944,34.678 L62.157,34.678 ZM45.260,85.112 L45.260,73.050 L38.421,73.050 C35.093,73.050 32.386,75.755 32.386,79.081 C32.386,82.406 35.093,85.112 38.421,85.112 L45.260,85.112 ZM71.812,73.050 L71.812,85.112 L78.651,85.112 C81.979,85.112 84.686,82.406 84.686,79.081 C84.686,75.755 81.979,73.050 78.651,73.050 L71.812,73.050 ZM81.468,58.762 C76.214,58.762 71.314,55.935 68.678,51.384 L67.629,49.572 L68.678,47.759 C71.314,43.208 76.214,40.381 81.468,40.381 C86.721,40.381 91.621,43.208 94.257,47.759 L95.306,49.572 L94.257,51.384 C91.621,55.935 86.721,58.762 81.468,58.762 ZM35.604,58.762 C30.351,58.762 25.450,55.935 22.815,51.384 L21.765,49.572 L22.815,47.759 C25.450,43.208 30.351,40.381 35.604,40.381 C40.858,40.381 45.759,43.208 48.394,47.759 L49.443,49.572 L48.394,51.384 C45.758,55.935 40.858,58.762 35.604,58.762 ZM47.674,12.514 C50.340,12.514 52.501,14.674 52.501,17.339 C52.501,20.004 50.340,22.164 47.674,22.164 C45.007,22.164 42.846,20.004 42.846,17.339 C42.846,14.674 45.007,12.514 47.674,12.514 ZM69.398,12.514 C72.065,12.514 74.226,14.674 74.226,17.339 C74.226,20.004 72.065,22.164 69.398,22.164 C66.732,22.164 64.571,20.004 64.571,17.339 C64.571,14.674 66.732,12.514 69.398,12.514 Z"/>
</svg>