<svg 
 xmlns="http://www.w3.org/2000/svg"
 xmlns:xlink="http://www.w3.org/1999/xlink"
 width="8.855cm" height="10.901cm">
<path fill-rule="evenodd"  fill="rgb(255, 255, 255)"
 d="M227.762,309.000 L53.902,309.000 C41.431,309.000 31.284,298.916 31.284,286.521 L31.284,284.694 C31.284,275.731 36.603,267.997 44.257,264.392 C43.103,253.038 43.358,220.506 76.788,187.274 C87.070,177.052 88.950,167.020 89.293,155.972 C87.829,156.087 86.331,156.163 84.803,156.202 L42.061,184.535 C38.933,186.609 34.764,186.201 32.103,183.556 L2.312,153.935 C-0.285,151.354 -0.746,147.331 1.201,144.236 L75.676,25.773 C76.581,24.333 77.926,23.248 79.483,22.638 C79.477,22.636 79.472,22.634 79.465,22.632 L130.288,0.651 C131.280,0.221 132.353,-0.000 133.436,-0.000 C134.529,-0.000 160.514,0.150 186.791,13.211 C211.511,25.500 240.978,51.730 240.978,106.911 C240.978,153.074 240.437,192.039 240.431,192.427 C240.371,196.715 236.858,200.159 232.542,200.159 L205.739,200.159 C205.353,222.778 208.417,240.659 222.793,262.213 L227.761,262.213 C240.232,262.213 250.379,272.298 250.380,284.694 L250.380,286.521 C250.380,298.916 240.235,309.000 227.762,309.000 ZM86.980,37.389 L29.292,129.149 C30.181,130.450 30.676,132.003 30.676,133.578 C30.676,135.638 29.835,137.656 28.362,139.120 C26.900,140.582 24.859,141.420 22.786,141.420 C22.400,141.420 22.016,141.381 21.637,141.326 L17.907,147.257 L38.688,167.919 L77.987,141.868 C79.283,141.008 80.807,140.549 82.365,140.549 C97.072,140.549 107.650,136.575 113.807,128.738 C124.908,114.606 119.456,91.297 119.397,91.066 C118.341,86.864 120.909,82.607 125.137,81.556 C129.362,80.510 133.649,83.060 134.706,87.262 C135.020,88.510 142.212,118.064 126.245,138.389 C120.952,145.127 113.890,149.976 105.133,152.902 C104.988,167.162 103.490,182.909 87.945,198.363 C62.366,223.790 59.467,248.039 59.709,259.014 L78.203,259.014 C77.968,244.672 81.903,216.238 111.030,187.276 C114.110,184.210 119.106,184.209 122.188,187.272 C125.270,190.334 125.271,195.299 122.191,198.362 C96.556,223.852 93.676,248.009 93.948,259.014 L202.524,259.014 C187.417,230.513 189.076,206.205 191.440,171.585 C192.472,156.486 193.640,139.373 193.640,118.770 C193.640,93.033 185.737,73.051 170.154,59.378 C142.934,35.499 99.701,36.503 86.980,37.389 ZM209.419,118.771 C209.419,139.906 208.231,157.300 207.183,172.647 C206.903,176.762 206.636,180.690 206.407,184.477 L224.748,184.477 C224.905,170.865 225.197,140.838 225.197,106.912 C225.197,69.243 210.058,42.517 180.198,27.472 C160.601,17.599 140.574,15.992 134.963,15.732 L119.028,22.624 C138.643,25.046 162.276,31.550 180.595,47.622 C199.720,64.401 209.419,88.340 209.419,118.771 ZM234.599,284.693 C234.599,280.946 231.532,277.897 227.761,277.897 L53.901,277.897 C50.131,277.897 47.063,280.946 47.063,284.693 L47.063,286.520 C47.063,290.267 50.131,293.316 53.901,293.316 L227.761,293.316 C231.531,293.316 234.599,290.267 234.599,286.520 L234.599,284.693 ZM82.767,98.265 C81.211,100.243 78.890,101.276 76.546,101.276 C74.846,101.276 73.134,100.733 71.691,99.612 C68.259,96.944 67.652,92.016 70.336,88.604 L73.777,84.229 C76.462,80.816 81.418,80.216 84.853,82.883 C88.285,85.550 88.892,90.479 86.208,93.891 L82.767,98.265 Z"/>
</svg>